# xmcd CD database file
#
# Track frame offsets:
#	150
#	20372
#	43420
#	63962
#	78820
#	92867
#	110650
#	127155
#	143800
#	164650
#	180562
#	207442
#	227910
#	250575
#
# Disc length: 3944 seconds
#
# Revision: 1
# Processed by: cddbd v1.5.2PL0 Copyright (c) Steve Scherf et al.
# Submitted via: jetAudio 7
#
DISCID=c60f660e
DTITLE=Alkæmy - The Merline Mystery
DYEAR=1988
DGENRE=New Age
TTITLE0=Wizardry
TTITLE1=Le Morte D'Arthur
TTITLE2=Nimue's Lament (Vocal Version)
TTITLE3=Stonehenge (Eighteen)
TTITLE4=Faerie Entertainers
TTITLE5=Winter
TTITLE6=Uther
TTITLE7=Legend of the Stone
TTITLE8=The Wand of Alchemy
TTITLE9=Enchantment
TTITLE10=The Cave
TTITLE11=Nimue's Lament (Instrumental)
TTITLE12=The Mystery
TTITLE13=Dream Sweet King
EXTD=YEAR: 1988
EXTT0=
EXTT1=
EXTT2=
EXTT3=
EXTT4=
EXTT5=
EXTT6=
EXTT7=
EXTT8=
EXTT9=
EXTT10=
EXTT11=
EXTT12=
EXTT13=
PLAYORDER=
